<?xml version="1.0" encoding="UTF-8" standalone="no"?>
<!-- Uploaded to: SVG Repo, www.svgrepo.com, Generator: SVG Repo Mixer Tools -->

<svg
   fill="#000000"
   height="800px"
   width="800px"
   version="1.1"
   id="Layer_1"
   viewBox="0 0 512 512"
   xml:space="preserve"
   sodipodi:docname="balloons-birthday-and-party-svgrepo-com.svg"
   inkscape:version="1.3.2 (091e20e, 2023-11-25, custom)"
   xmlns:inkscape="http://www.inkscape.org/namespaces/inkscape"
   xmlns:sodipodi="http://sodipodi.sourceforge.net/DTD/sodipodi-0.dtd"
   xmlns="http://www.w3.org/2000/svg"
   xmlns:svg="http://www.w3.org/2000/svg"><defs
   id="defs6" /><sodipodi:namedview
   id="namedview6"
   pagecolor="#ffffff"
   bordercolor="#000000"
   borderopacity="0.25"
   inkscape:showpageshadow="2"
   inkscape:pageopacity="0.0"
   inkscape:pagecheckerboard="0"
   inkscape:deskcolor="#d1d1d1"
   inkscape:zoom="1.11375"
   inkscape:cx="400"
   inkscape:cy="184.51178"
   inkscape:window-width="1920"
   inkscape:window-height="1129"
   inkscape:window-x="1912"
   inkscape:window-y="-8"
   inkscape:window-maximized="1"
   inkscape:current-layer="Layer_1" />
<g
   id="g6">
	<g
   id="g5">
		<g
   id="g4">
			<path
   d="M349.013,0c-42.055,0-75.342,20.944-94.66,56.186C235.034,20.944,201.748,0,159.692,0     C51.232,0,12.703,135.765,90.522,226.459c13.176,15.349,52.267,58.109,104.7,114.838c6.804,7.364,14.643,13.142,23.068,17.362     l-6.442,32.202c-1.056,5.28,2.982,10.207,8.368,10.207h26.619c0.604,2.471,1.46,4.858,2.553,7.25     c0.577,1.262,2.139,4.334,2.26,4.618c4.748,11.192,3.094,25.87-3.738,33.733c-14.147,16.895-14.157,46.106,0.001,62.395     c3.092,3.557,8.481,3.934,12.038,0.843s3.934-8.481,0.843-12.039c-8.609-9.906-8.603-29.727,0.102-40.124     c11.217-12.907,13.653-34.529,6.467-51.469c-0.404-0.954-2.116-4.319-2.45-5.05c-0.024-0.053-0.044-0.105-0.068-0.158h23.64     c5.385,0,9.424-4.927,8.368-10.207l-6.441-32.199c8.428-4.221,16.27-10,23.075-17.366     c52.494-56.795,91.527-99.494,104.691-114.837C495.999,135.769,457.468,0,349.013,0z M278.073,384.002h-23.688     c-0.011,0-0.022-0.002-0.034-0.002s-0.022,0.002-0.034,0.002h-23.692l3.862-19.306c13.019,3.299,26.705,3.299,39.724,0.001     L278.073,384.002z M405.223,215.345c-12.959,15.105-51.989,57.8-104.273,114.368c-6.516,7.052-14.235,12.259-22.526,15.653     c-0.285,0.079-0.569,0.169-0.851,0.28c-14.9,5.852-31.547,5.852-46.446,0c-0.271-0.106-0.543-0.192-0.816-0.269     c-8.302-3.394-16.031-8.604-22.554-15.663c-52.225-56.504-91.312-99.26-104.284-114.37     c-69.239-80.695-35.87-198.277,56.22-198.277c41.182,0,71.922,23.31,86.671,62.596c2.77,7.379,13.208,7.379,15.978,0     c14.749-39.286,45.489-62.596,86.671-62.596C441.098,17.067,474.468,134.653,405.223,215.345z"
   id="path1" />
			
			
			<path
   d="M415.337,73.236c-11.161-24.28-33.209-39.103-67.12-39.103c-4.713,0-8.533,3.82-8.533,8.533s3.82,8.533,8.533,8.533     c27.093,0,43.178,10.813,51.613,29.164c1.968,4.282,7.035,6.158,11.317,4.19S417.306,77.518,415.337,73.236z"
   id="path4" />
		</g>
	</g>
</g>
</svg>
