<?xml version="1.0" encoding="utf-8"?>
<!-- Generator: Adobe Illustrator 27.5.0, SVG Export Plug-In . SVG Version: 6.00 Build 0)  -->
<svg version="1.1" id="Layer_1" xmlns="http://www.w3.org/2000/svg" xmlns:xlink="http://www.w3.org/1999/xlink" x="0px" y="0px"
	 viewBox="0 0 512 512" style="enable-background:new 0 0 512 512;" xml:space="preserve">
<style type="text/css">
	.st0{fill-rule:evenodd;clip-rule:evenodd;}
</style>
<g>
	<path class="st0" d="M271.94,354.86c355.05-245.05,90.7-432.58-15.93-322.93C149.35-77.73-115,109.81,240.08,354.86l-7.61,15.21
		c-2.01,4.02-0.38,8.91,3.64,10.92s8.91,0.38,10.92-3.64l1.3-2.6c0.29,5.53,0.78,10.24,1.66,14.63
		c2.21,11.18,6.76,20.22,14.56,35.82l0.42,0.91c6.89,13.72,5.92,27.63,1.63,40.51c-4.39,13.07-11.9,24.41-17.36,32.61
		c-2.5,3.73-1.49,8.78,2.24,11.28s8.78,1.49,11.28-2.24l0.13-0.23c5.4-8.06,14.01-21,19.11-36.25c5.2-15.57,6.89-34.17-2.47-52.96
		c-8.39-16.74-11.87-23.8-13.62-32.64c-0.59-3.1-0.99-6.24-1.2-9.39l0.26,0.55c2.01,4.02,6.9,5.65,10.92,3.64s5.65-6.9,3.64-10.92
		l-7.64-15.21L271.94,354.86z M214.6,41.12c-37.94-19.83-91.02-4.62-112.28,36.9c-7.7,15.05-11.7,35.11-6.57,60.14
		c1.79,8.78,15.18,6.4,17.13-2.31c9.26-40.83,38.26-80.03,97.17-82.18C217.65,53.41,221.36,44.63,214.6,41.12z"/>
</g>
</svg>
