<?xml version="1.0" encoding="UTF-8"?>
<svg version="1.1" xmlns="http://www.w3.org/2000/svg" width="500" height="901">
<path d="M0 0 C12.3382968 9.76263462 15.92758067 19.72220023 17.7878418 35.04345703 C18.10555489 37.80496632 18.36454209 40.56461039 18.58520508 43.33544922 C19.25816275 50.65084129 20.00826906 54.98259599 24.91235352 60.49438477 C26.40373227 62.65353608 26.4358977 63.69644881 26.14453125 66.27734375 C25.84696023 67.61169774 25.50680934 68.93726594 25.125 70.25 C24.79886719 71.48878906 24.47273438 72.72757812 24.13671875 74.00390625 C21.59403807 81.65886024 18.45012293 87.61651309 13.1875 93.75 C4.58833512 103.81110251 -0.93196501 114.83718037 -1.19140625 128.328125 C-0.84128521 131.56134153 -0.10547269 133.69810918 2.38085938 135.90771484 C2.95642578 136.35066895 3.53199219 136.79362305 4.125 137.25 C4.76759766 137.85408691 5.41019531 138.45817383 6.07226562 139.08056641 C12.66574874 144.94695218 19.37722759 147.39639393 27.70092773 149.66949463 C31.28103177 150.65372314 34.83407719 151.72612549 38.38671875 152.8046875 C39.07289276 153.01261932 39.75906677 153.22055115 40.46603394 153.43478394 C51.81710257 156.94019747 61.41522657 162.0187857 69.125 171.25 C69.79917969 171.98734375 70.47335937 172.7246875 71.16796875 173.484375 C80.50120273 184.20095886 84.0327365 196.89086049 86.4375 210.625 C86.56429138 211.31698486 86.69108276 212.00896973 86.82171631 212.72192383 C88.64204385 222.7035723 89.60712388 232.50770089 89.80737305 242.65820312 C90.3929985 267.60542474 96.0089863 296.17937521 109.5 317.4375 C116.96497523 329.68134065 120.93315932 341.84217242 124.52661133 355.65258789 C126.57763192 363.4538815 128.88690462 370.79921479 132.20605469 378.16796875 C133.34118889 380.73981372 134.40453032 383.33873732 135.4765625 385.9375 C136.33651589 387.95919622 137.19849635 389.9800314 138.0625 392 C138.45735596 392.96647461 138.85221191 393.93294922 139.2590332 394.92871094 C141.17181093 399.28019313 142.26422598 401.71679544 146.37890625 404.265625 C149.08815633 404.97754473 151.72799462 405.56716506 154.46875 406.10546875 C159.81879529 407.20608188 164.00944442 409.7276604 168.625 412.5625 C170.21829024 413.51769439 171.81203884 414.47212466 173.40625 415.42578125 C174.18162109 415.89443604 174.95699219 416.36309082 175.75585938 416.84594727 C178.87818666 418.69637021 182.05489693 420.43866511 185.24609375 422.16699219 C188.97518159 424.31645082 190.7511755 426.07868325 192.0625 430.1875 C192.1517388 434.56020129 190.40799376 436.60043659 187.8125 439.9375 C183.52888004 443.26920441 179.60788009 443.33550534 174.40625 442.796875 C173.41689453 442.69729492 172.42753906 442.59771484 171.40820312 442.49511719 C170.65474609 442.41422852 169.90128906 442.33333984 169.125 442.25 C169.63998047 443.00095947 170.15496094 443.75191895 170.68554688 444.52563477 C172.59957274 447.33323357 174.49848009 450.14990827 176.38818359 452.97387695 C177.20693309 454.19101127 178.03141404 455.40431136 178.86181641 456.61352539 C180.05881182 458.35872459 181.23409058 460.11695994 182.40625 461.87890625 C183.47456055 463.4578064 183.47456055 463.4578064 184.56445312 465.06860352 C186.39260227 468.79554523 186.5773598 471.14701197 186.125 475.25 C183.7176392 479.07345539 182.31139623 480.90105993 177.9375 482.1875 C175.125 482.25 175.125 482.25 173.125 481.25 C173.640625 482.3225 174.15625 483.395 174.6875 484.5 C175.59353783 486.6588844 176.125 488.02006569 176.125 490.375 C174.51376683 493.39606218 172.85532661 495.17257758 170.125 497.25 C165.95947809 497.17692067 162.69986672 496.39492003 159.125 494.25 C158.83625 495.03375 158.5475 495.8175 158.25 496.625 C157.125 499.25 157.125 499.25 155.125 501.25 C151.87231745 501.68786111 149.33373275 501.93796354 146.40234375 500.26953125 C143.52815536 497.97441767 141.40795452 495.7139772 140.125 492.25 C139.25875 493.24 138.3925 494.23 137.5 495.25 C135.17311581 497.56045913 134.37863349 498.19823806 131.0625 498.875 C126.53277268 497.91122823 124.14067767 495.75769422 121.58129883 491.95849609 C120.07714718 489.16100098 119.27310756 486.67940823 118.51171875 483.6015625 C118.23626221 482.52076416 117.96080566 481.43996582 117.67700195 480.32641602 C117.39171631 479.18744873 117.10643066 478.04848145 116.8125 476.875 C114.23545491 466.93104934 111.19381247 457.66876705 107.125 448.25 C105.29748056 443.6016056 103.54146633 438.99218112 102.37890625 434.12890625 C99.67378108 422.93305327 94.17489925 413.95164024 88.125 404.25 C87.64998047 403.48558594 87.17496094 402.72117187 86.68554688 401.93359375 C82.63020659 395.42943037 78.5044365 388.97015106 74.37451172 382.51318359 C64.86090625 367.60708543 56.04191381 352.44828727 47.60449219 336.9152832 C46.61416133 335.13121687 45.57083367 333.37561033 44.47851562 331.65209961 C43.16905157 329.32817882 42.68404969 327.88091438 42.421875 325.265625 C42.33204346 324.50668945 42.24221191 323.74775391 42.1496582 322.96582031 C42.059021 322.15209961 41.96838379 321.33837891 41.875 320.5 C40.2807446 308.07021213 36.72747751 296.22376604 33.125 284.25 C31.67383931 291.19078278 31.43332705 298.18453368 31.125 305.25 C31.0842334 306.05066895 31.0434668 306.85133789 31.00146484 307.67626953 C30.32938196 322.22471906 32.55533408 335.18307664 36.125 349.25 C40.24352042 365.56557543 43.541425 381.69218713 45.74316406 398.38574219 C46.05465069 400.72229023 46.38816599 403.05246887 46.7421875 405.3828125 C48.06341756 414.63142291 48.64570191 423.93318005 49.25 433.25 C49.29465393 433.92114838 49.33930786 434.59229675 49.38531494 435.28378296 C50.28239073 448.97496782 50.60595899 462.57238566 49.3125 476.25 C49.17992798 477.735 49.17992798 477.735 49.04467773 479.25 C48.84989117 481.41436882 48.65160934 483.57842536 48.45019531 485.7421875 C48.16259358 488.84448609 47.88379507 491.94744861 47.60847473 495.05085754 C43.48482633 541.44850092 43.48482633 541.44850092 38.2109375 561.9140625 C35.56201883 572.34348704 35.95538516 582.556283 36.125 593.25 C36.13587646 594.31516846 36.13587646 594.31516846 36.14697266 595.40185547 C36.32529522 607.39782577 38.93519496 618.76430924 41.51269531 630.4296875 C42.36555911 634.35802984 43.13699692 638.29866835 43.875 642.25 C44.09671875 643.425625 44.3184375 644.60125 44.546875 645.8125 C49.30846098 674.12463283 45.71077293 703.95445066 39.984375 731.88671875 C38.7334035 738.63343839 38.72879974 745.40764227 38.75 752.25 C38.75087616 752.94497589 38.75175232 753.63995178 38.75265503 754.35598755 C38.84431157 776.61964741 42.94249612 797.42509415 49.36938477 818.69750977 C53.10842514 831.32809687 53.5172897 843.04584611 47.2265625 855.1015625 C41.75349219 864.59493797 34.56978143 871.52183439 24.125 875.25 C18.71200898 876.48155809 13.87207664 876.96819 9.0078125 873.92578125 C-2.67448843 861.95791297 -6.21035041 844.52355539 -6.3125 828.5 C-6.51606721 818.19234681 -7.4166414 808.2021083 -8.875 798 C-10.63697553 785.47589646 -11.25381951 773.14211774 -11.4375 760.5 C-11.64410398 747.18257454 -12.0682957 734.31974076 -14.875 721.25 C-15.06642578 720.33557129 -15.25785156 719.42114258 -15.45507812 718.47900391 C-16.46321211 713.69036748 -17.50717932 708.91203066 -18.59375 704.140625 C-18.79589111 703.20387939 -18.99803223 702.26713379 -19.20629883 701.30200195 C-19.67490547 699.16324633 -20.17773918 697.03183734 -20.70581055 694.90698242 C-23.85002884 680.92259246 -22.99997423 666.84704252 -22.5871582 652.59936523 C-22.21000779 638.63094139 -22.91277215 626.68771911 -27.27368164 613.3840332 C-30.18011949 604.46490407 -31.54974329 595.15481087 -33.1875 585.9375 C-33.53620522 584.02913144 -33.88581251 582.12092749 -34.23632812 580.21289062 C-37.94301964 559.86475051 -37.94301964 559.86475051 -38.05078125 552.0625 C-38.3032418 540.86911518 -39.18672728 530.15491873 -41.21313477 519.14379883 C-42.95124228 509.45355517 -44.06052599 499.71996412 -45.125 489.9375 C-45.2136734 489.12962036 -45.3023468 488.32174072 -45.39370728 487.48937988 C-45.6456875 485.18463761 -45.89426358 482.87956794 -46.140625 480.57421875 C-46.21542587 479.87844223 -46.29022675 479.18266571 -46.36729431 478.46580505 C-46.65550931 475.70875881 -46.875 473.02467114 -46.875 470.25 C-47.865 470.25 -48.855 470.25 -49.875 470.25 C-49.99875 471.178125 -50.1225 472.10625 -50.25 473.0625 C-50.69225971 476.16064154 -51.22278423 479.23467798 -51.7890625 482.3125 C-51.96646973 483.28356689 -52.14387695 484.25463379 -52.32666016 485.25512695 C-52.67756931 487.17169091 -53.02877774 489.08820011 -53.38037109 491.00463867 C-55.90995246 504.94480451 -57.5773052 518.74753665 -58.61425781 532.87109375 C-59.42832529 543.42043255 -60.45592812 553.95382896 -61.50146484 564.48242188 C-61.73546939 566.84265594 -61.96558152 569.20328274 -62.18994141 571.56445312 C-63.93420893 589.54953558 -63.93420893 589.54953558 -66.62109375 598.125 C-73.01694626 618.83290969 -72.42012235 638.7847492 -72.0234375 660.296875 C-71.74285223 676.61392159 -73.1928411 691.27555624 -77.3125 707.0625 C-77.93104499 709.4800509 -78.54541455 711.89859434 -79.1565094 714.31803894 C-79.53316167 715.80430398 -79.91448457 717.28939834 -80.30186462 718.77290344 C-82.75349928 728.31684423 -84.17601688 737.39309606 -84.03515625 747.26171875 C-84.02995468 748.27361771 -84.02475311 749.28551666 -84.01939392 750.32807922 C-84.00176976 753.53137423 -83.97068216 756.73433153 -83.9375 759.9375 C-83.72276347 784.42680028 -83.72276347 784.42680028 -84.61889648 796.54223633 C-85.02554691 802.42955765 -85.16257027 808.32070525 -85.31835938 814.21896362 C-85.37673936 816.31237044 -85.44476343 818.40527124 -85.515625 820.49829102 C-85.807246 828.88584642 -85.807246 828.88584642 -85.84375 837.27734375 C-85.92576943 847.54002539 -89.32377725 854.83817189 -94.69482422 863.36572266 C-95.75602216 865.06003911 -96.74438627 866.79945587 -97.72265625 868.54296875 C-100.45595193 872.80210421 -102.35756173 874.84787027 -107.32421875 876.1640625 C-114.22786529 876.65269269 -119.08524617 875.82623672 -124.5625 871.5 C-126.36027749 869.77769143 -128.12972795 868.02549321 -129.875 866.25 C-130.94859311 865.29418783 -132.02824379 864.34514424 -133.11328125 863.40234375 C-141.35356243 856.04394512 -144.36892436 849.69654149 -145.12109375 838.62890625 C-145.05861077 833.00145002 -143.28594092 827.7890162 -141.6875 822.4375 C-141.04632556 820.20328261 -140.40570562 817.96890601 -139.765625 815.734375 C-138.87057478 812.65142424 -137.97059125 809.57037828 -137.05273438 806.49414062 C-133.78643527 795.51363638 -132.04617962 785.80605277 -132.875 774.25 C-132.93107422 773.42032715 -132.98714844 772.5906543 -133.04492188 771.73583984 C-133.46789867 765.72368252 -133.99537889 759.72355414 -134.55419922 753.72265625 C-134.89295323 750.05565693 -135.21466358 746.38738802 -135.53515625 742.71875 C-135.7717285 740.06232989 -136.0094114 737.40605489 -136.25 734.75 C-136.31076721 734.07826752 -136.37153442 733.40653503 -136.43414307 732.71444702 C-137.18796894 724.47918782 -138.10129536 716.28738486 -139.2366333 708.09596252 C-143.01185863 680.80624612 -142.24117737 656.73256884 -136.87988281 629.79443359 C-134.25621576 616.60820977 -132.31930599 603.71028647 -131.875 590.25 C-131.82875488 589.27160156 -131.78250977 588.29320312 -131.73486328 587.28515625 C-131.15249093 574.26985956 -132.08247076 562.64019167 -135.5859375 550.07421875 C-137.98932966 541.38838316 -139.17884379 532.98284321 -139.10546875 523.9765625 C-139.1054612 522.55102806 -139.1054612 522.55102806 -139.10545349 521.09669495 C-139.1019739 518.02265606 -139.08310801 514.94896818 -139.0625 511.875 C-139.05427679 509.73608492 -139.0463042 507.59716887 -139.03857422 505.45825195 C-138.97604809 492.11626819 -138.81013779 478.77602514 -138.5 465.4375 C-138.48480316 464.68357971 -138.46960632 463.92965942 -138.45394897 463.15289307 C-138.29159976 455.49663496 -137.86746193 448.10472736 -136.31640625 440.58618164 C-135.70486161 437.34952754 -135.63146338 434.16346412 -135.5625 430.875 C-135.2944658 424.7197599 -134.24249772 419.07729807 -132.6875 413.125 C-130.02519208 402.93088039 -128.48052144 392.65701013 -126.9375 382.25 C-125.10884311 369.96125854 -122.9358639 358.13301874 -119.07421875 346.2890625 C-114.94736337 333.30701761 -116.71874475 318.72656274 -117.8125 305.375 C-117.89927002 304.31023437 -117.98604004 303.24546875 -118.07543945 302.1484375 C-118.34330014 297.03495197 -118.34330014 297.03495197 -119.875 292.25 C-120.82403856 295.58015375 -121.75809295 298.91431619 -122.6875 302.25 C-122.97028809 303.25587158 -123.25307617 304.26174316 -123.54443359 305.2980957 C-125.11960389 311.03034588 -126.26125838 316.54558514 -127 322.4375 C-128.84817259 332.85063244 -134.90472293 340.72834983 -140.875 349.25 C-142.14930067 351.09836354 -143.42271381 352.94733923 -144.6953125 354.796875 C-147.37608174 358.67858123 -150.07814034 362.54439579 -152.79296875 366.40234375 C-155.48711623 370.24043226 -158.13422699 374.10414377 -160.73828125 378.00390625 C-166.55887602 386.71224962 -172.42829402 395.17631624 -179.1875 403.1875 C-189.30840842 415.26087269 -196.30637692 425.1937752 -199.7890625 440.74609375 C-200.67675583 444.67015771 -201.97411583 448.2328005 -203.5625 451.9375 C-205.58828647 456.85726713 -206.41678041 461.3203079 -206.9375 466.5625 C-207.70693448 474.20824899 -209.07171531 479.85414309 -214.75 485.25 C-218.2918038 487.51675443 -219.76926098 488.12356149 -223.875 487.25 C-226.75 484.875 -226.75 484.875 -228.875 482.25 C-228.875 481.59 -228.875 480.93 -228.875 480.25 C-229.535 480.25 -230.195 480.25 -230.875 480.25 C-231.1225 481.4565625 -231.1225 481.4565625 -231.375 482.6875 C-233.60506877 487.98391333 -235.99588889 492.04570434 -240.875 495.25 C-247.31297573 496.42697259 -254.1482061 497.0448056 -259.80078125 493.32421875 C-262.92644324 490.19855676 -263.03273566 488.37832933 -263.0625 484.0625 C-263.0317652 479.39081089 -262.43476988 475.6368528 -260.875 471.25 C-261.74125 471.91 -262.6075 472.57 -263.5 473.25 C-267.17241751 475.42624741 -268.70810042 475.9592595 -272.875 475.25 C-275.57490662 473.45006226 -277.4168865 472.166227 -278.875 469.25 C-279.39176405 463.04883138 -278.60497934 460.25060006 -274.875 455.25 C-274.16331665 454.29456299 -274.16331665 454.29456299 -273.43725586 453.31982422 C-271.31835392 450.50378712 -269.17959667 447.70332955 -267.03320312 444.90820312 C-266.51306641 444.22306641 -265.99292969 443.53792969 -265.45703125 442.83203125 C-264.98499268 442.21561768 -264.5129541 441.5992041 -264.02661133 440.96411133 C-262.68991896 439.13903003 -262.68991896 439.13903003 -261.875 436.25 C-262.52726562 436.36859375 -263.17953125 436.4871875 -263.8515625 436.609375 C-268.44390981 437.28671236 -271.05235558 437.65384362 -275.3125 435.5625 C-280.68912826 430.71042084 -280.68912826 430.71042084 -281.3125 425.8125 C-280.79295508 421.58191991 -279.76178379 420.31642755 -276.875 417.25 C-274.30053711 415.67602539 -274.30053711 415.67602539 -271.40234375 414.34765625 C-269.80422852 413.60032227 -269.80422852 413.60032227 -268.17382812 412.83789062 C-267.06458984 412.33451172 -265.95535156 411.83113281 -264.8125 411.3125 C-244.8408372 402.09389448 -230.15324188 394.51749819 -220.75 374.1875 C-220.06882339 372.77038705 -219.38601946 371.35405526 -218.70166016 369.93847656 C-213.66453465 359.41176764 -209.20543863 348.68410896 -205.0859375 337.765625 C-202.04511157 329.89471096 -198.48494681 322.26757839 -193.5 315.4375 C-183.8794481 301.89193358 -180.46290116 290.43967492 -178.25439453 273.99414062 C-176.2034998 259.16012726 -172.70343489 244.46265306 -169.62158203 229.81835938 C-169.12319473 227.43627016 -168.63460603 225.05211014 -168.15576172 222.66601562 C-166.57097661 214.92007199 -164.54372708 207.48386113 -162 200 C-161.67386719 199.00226563 -161.34773438 198.00453125 -161.01171875 196.9765625 C-158.81296058 190.42306539 -156.13745015 184.34054237 -152.875 178.25 C-152.32199219 177.18910156 -151.76898438 176.12820312 -151.19921875 175.03515625 C-141.22517974 158.44349708 -124.89117651 153.32016757 -107.19433594 148.22802734 C-101.58608585 146.57558178 -96.0453001 144.72581971 -90.5 142.875 C-89.47777344 142.54089111 -88.45554688 142.20678223 -87.40234375 141.86254883 C-86.45746094 141.54954834 -85.51257813 141.23654785 -84.5390625 140.9140625 C-83.70842285 140.64029785 -82.8777832 140.3665332 -82.02197266 140.08447266 C-79.63432393 139.24525452 -79.63432393 139.24525452 -76.875 137.25 C-75.16703841 129.5340552 -78.2262127 121.80491946 -80.75 114.625 C-81.14912598 113.45654541 -81.54825195 112.28809082 -81.95947266 111.08422852 C-85.11931324 102.00229041 -88.6710726 93.10715179 -92.51123047 84.29248047 C-100.32398819 66.28529814 -100.32398819 66.28529814 -98.875 58.25 C-97.1171875 56.83203125 -97.1171875 56.83203125 -94.9375 55.375 C-91.57522481 52.78999333 -90.93803643 51.64869539 -90.26171875 47.37109375 C-90.19295435 45.85243527 -90.14849993 44.33253285 -90.125 42.8125 C-89.78508939 25.83604598 -86.27806978 14.34005518 -73.8984375 2.03076172 C-54.51796341 -15.02536498 -20.17470584 -14.57896084 0 0 Z M-71.51611328 9.90625 C-78.96888998 18.79879487 -81.83891793 27.37943002 -81.91015625 38.90625 C-82.09520972 52.20696842 -82.09520972 52.20696842 -84.71484375 55.7109375 C-86.9375 57.375 -86.9375 57.375 -89.16015625 58.5078125 C-91.26978309 60.65107804 -91.18770214 61.43799032 -91.27734375 64.3828125 C-91.05528546 69.19812466 -89.95438017 73.46626159 -88.375 78 C-88.10945312 78.78294434 -87.84390625 79.56588867 -87.5703125 80.37255859 C-85.37419483 86.52395471 -82.4133184 91.52626482 -78.8359375 96.98828125 C-72.2773065 107.89755791 -69.6632766 119.65116533 -68.875 132.25 C-68.75898438 133.43464844 -68.64296875 134.61929688 -68.5234375 135.83984375 C-68.89352385 139.42968138 -69.70772963 141.28875447 -72.19775391 143.91455078 C-75.46045041 146.51236008 -79.1639721 147.8067485 -83.0625 149.1875 C-83.96653564 149.52177002 -84.87057129 149.85604004 -85.80200195 150.20043945 C-94.32084858 153.25292405 -103.02616792 155.59154341 -111.81518555 157.72827148 C-118.70841698 159.4514451 -124.6609478 161.81340271 -130.875 165.25 C-131.81472656 165.73082031 -132.75445312 166.21164063 -133.72265625 166.70703125 C-150.6210699 177.04874119 -155.3843156 202.2224484 -159.875 220.25 C-162.164383 230.1327795 -163.95000534 240.12183841 -165.74053955 250.10447693 C-167.03318618 257.25989191 -168.61487242 264.34181869 -170.26098633 271.42358398 C-171.24902564 275.81312299 -172.0132633 280.08771625 -172.390625 284.57421875 C-173.59721547 298.3866378 -178.32295875 307.33342944 -186.14770508 318.67993164 C-192.02377693 327.42302824 -196.3959866 336.38090037 -200.1875 346.1875 C-212.99496451 378.32669432 -223.76834402 401.08707193 -256.2265625 415.64453125 C-261.94524726 418.21604049 -267.4141534 421.17403761 -272.875 424.25 C-272.52713292 426.22536745 -272.52713292 426.22536745 -271.875 428.25 C-268.08370055 430.14564972 -263.27532323 428.66203129 -259.16015625 428.2109375 C-255.875 428.25 -255.875 428.25 -253.93359375 429.3515625 C-252.32132621 432.24293529 -252.40353077 433.96935997 -252.875 437.25 C-254.28641754 439.82699391 -255.67837609 442.06818282 -257.375 444.4375 C-258.04861572 445.41553589 -258.04861572 445.41553589 -258.73583984 446.41333008 C-262.17424831 451.37404558 -265.77253564 456.21501127 -269.4765625 460.98046875 C-271.22472525 463.37327369 -271.22472525 463.37327369 -270.875 467.25 C-266.58823254 466.7736925 -264.75690868 464.26914242 -261.875 461.25 C-259.93495156 459.30995156 -258.14497655 457.85790006 -255.875 456.25 C-252.39356674 456.32912348 -251.34145256 456.78354744 -248.875 459.25 C-249.2938735 464.30379985 -251.76988116 468.9081769 -253.87890625 473.45898438 C-256.03591227 478.49027833 -255.91210037 481.8797274 -254.875 487.25 C-252.98205765 487.41302853 -251.08501605 487.52886529 -249.1875 487.625 C-248.13175781 487.69460938 -247.07601562 487.76421875 -245.98828125 487.8359375 C-242.40331905 487.16122692 -241.13151352 485.9662174 -238.99389648 483.0546875 C-237.1096854 480.01561084 -235.65313798 476.84623263 -234.25 473.5625 C-230.83294649 465.64324762 -230.83294649 465.64324762 -227.875 463.25 C-225.40699953 464.40173355 -223.82716435 465.29783565 -221.875 467.25 C-221.6796875 469.8515625 -221.6796875 469.8515625 -221.75 472.875 C-221.76804688 473.87789063 -221.78609375 474.88078125 -221.8046875 475.9140625 C-221.82789063 476.68492187 -221.85109375 477.45578125 -221.875 478.25 C-220.885 478.25 -219.895 478.25 -218.875 478.25 C-215.89489052 474.44928066 -215.35831379 470.96201795 -214.75 466.25 C-210.8246729 440.94963843 -201.87689163 417.91437848 -185.33984375 398.41796875 C-179.69624128 391.72931408 -174.65639299 384.57419032 -169.51660156 377.49707031 C-167.99236354 375.41065051 -166.45058518 373.33914043 -164.8984375 371.2734375 C-159.75189783 364.40334314 -154.95300017 357.42896077 -150.51391602 350.078125 C-147.9400881 345.83730476 -145.11959963 341.97861936 -142.0625 338.0625 C-136.17150657 329.70913366 -134.78939969 320.11924974 -132.875 310.25 C-131.01773789 300.8498779 -128.69932616 291.69980848 -125.91333008 282.54125977 C-125.30199039 280.52788788 -124.70232461 278.51127077 -124.10351562 276.49414062 C-123.71421884 275.20031689 -123.32427021 273.90668906 -122.93359375 272.61328125 C-122.58611084 271.46126221 -122.23862793 270.30924316 -121.88061523 269.12231445 C-120.875 266.25 -120.875 266.25 -118.875 263.25 C-114 264.125 -114 264.125 -112.875 265.25 C-112.77774774 267.34416542 -112.68876703 269.43894751 -112.63452148 271.53466797 C-112.31984682 283.67150995 -110.9643513 295.5749663 -109.24682617 307.57836914 C-107.25661135 322.1035579 -106.97981898 334.69189875 -111.25 348.875 C-111.72566406 350.55142578 -111.72566406 350.55142578 -112.2109375 352.26171875 C-113.36344397 356.29068928 -114.5393625 360.29171592 -115.92480469 364.24731445 C-116.85716137 367.19362866 -117.38793072 369.94556443 -117.8046875 373.00390625 C-117.95808594 374.09445312 -118.11148438 375.185 -118.26953125 376.30859375 C-118.42808594 377.46488281 -118.58664063 378.62117188 -118.75 379.8125 C-119.93744239 388.16923739 -121.21736878 396.47329278 -122.875 404.75 C-125.17659984 416.27851867 -126.81763221 427.89883693 -128.45776367 439.53710938 C-128.7214372 441.25152731 -129.03286834 442.95986663 -129.40942383 444.65307617 C-129.9982276 447.93734766 -130.07627779 451.12138174 -130.15625 454.45703125 C-130.18386414 455.48336922 -130.18386414 455.48336922 -130.21203613 456.53044128 C-130.27044016 458.70771185 -130.32335727 460.88505926 -130.375 463.0625 C-130.44335042 465.92331644 -130.51710551 468.78392642 -130.59375 471.64453125 C-130.62404297 472.91143799 -130.65433594 474.17834473 -130.68554688 475.48364258 C-130.82120768 478.18060044 -131.0339947 480.75107958 -131.38208008 483.41870117 C-134.1829471 505.18888753 -134.13819238 535.41233628 -125.99609375 556.09375 C-121.03757851 570.05361172 -124.06528555 587.10111407 -125.3828125 601.48828125 C-125.68722735 604.86267044 -125.94376811 608.21921228 -126.0546875 611.60546875 C-126.3530439 620.21392829 -127.83166213 627.91886801 -129.92578125 636.25146484 C-131.403829 642.16043334 -132.69256327 648.05240973 -133.6875 654.0625 C-133.8728833 655.0985437 -133.8728833 655.0985437 -134.06201172 656.15551758 C-136.11042967 669.17846254 -134.78623211 681.86207569 -132.5 694.75 C-132.02620847 697.57108024 -131.56701507 700.39437938 -131.11328125 703.21875 C-131.00185287 703.91154053 -130.8904245 704.60433105 -130.77561951 705.31811523 C-129.37771489 714.17684439 -128.65756857 723.05572186 -128.08544922 732 C-127.89158303 734.99390568 -127.67955014 737.98610264 -127.46235657 740.97839355 C-123.14047505 800.84221357 -123.14047505 800.84221357 -132.625 822 C-136.09667187 830.19183141 -136.76153927 839.54569718 -134.875 848.25 C-131.3973197 856.82498948 -122.18474766 865.62263511 -113.875 869.25 C-110.29283807 869.51211604 -110.29283807 869.51211604 -106.875 868.25 C-104.90275305 866.18131826 -103.6724365 864.58720306 -102.25 862.1875 C-101.17878906 860.53041016 -101.17878906 860.53041016 -100.0859375 858.83984375 C-93.14084047 845.51679036 -92.1277269 832.50800412 -92.125 817.75 C-92.10320801 815.0865346 -92.07461008 812.42324959 -92.04266357 809.7598877 C-92.0252308 808.12152188 -92.01466042 806.48306164 -92.01251221 804.84460449 C-91.9913039 800.67408648 -91.67139329 796.71345141 -91.10162354 792.5748291 C-90.57556081 787.17818775 -90.73871085 781.72942166 -90.734375 776.3125 C-90.72239128 774.24407391 -90.70704713 772.17568791 -90.69166946 770.10728455 C-90.65416906 765.05977571 -90.62234695 760.01250874 -90.62451172 754.96484375 C-90.62317203 736.85535694 -89.43504616 719.88024541 -84.875 702.25 C-81.45267707 688.48494683 -79.40913 675.61351968 -79.4375 661.4375 C-79.43730362 660.42042969 -79.43730362 660.42042969 -79.43710327 659.3828125 C-79.46297983 651.94844232 -79.97533001 644.93584994 -81.43237305 637.65063477 C-82.91769279 629.59484377 -80.95948023 623.18834775 -78.625 615.5 C-72.86850269 595.74003654 -69.38559721 576.16401608 -68.28222656 555.60131836 C-67.29997947 537.4488494 -65.1497089 519.60430381 -62.50976562 501.62255859 C-61.99444074 498.10126926 -61.50572892 494.57710193 -61.03103638 491.05012512 C-60.61281003 487.94886879 -60.1803049 484.84959987 -59.75 481.75 C-59.60385254 480.6468042 -59.45770508 479.5436084 -59.30712891 478.40698242 C-58.4115549 472.17126267 -57.44868614 467.82368614 -52.875 463.25 C-50.8515625 462.9140625 -50.8515625 462.9140625 -48.5 462.875 C-47.72914063 462.84664063 -46.95828125 462.81828125 -46.1640625 462.7890625 C-42.92455227 463.44138709 -41.91973963 464.66648935 -39.875 467.25 C-39.29801627 469.82189011 -38.95393213 472.07116199 -38.75 474.671875 C-38.64158279 475.76381165 -38.64158279 475.76381165 -38.53097534 476.87780762 C-38.37726529 478.43869583 -38.23125307 480.00035777 -38.09222412 481.56262207 C-37.7252058 485.68077599 -37.30351068 489.79328688 -36.8828125 493.90625 C-36.80056427 494.72136047 -36.71831604 495.53647095 -36.63357544 496.37628174 C-35.96617906 502.81247794 -34.95263413 509.14201818 -33.75 515.5 C-32.16565531 524.04246387 -31.46649739 532.50123362 -31.0402832 541.1628418 C-30.3897722 554.37238711 -28.79635139 566.88471206 -25.69921875 579.77099609 C-24.15091478 586.30634311 -22.72785632 592.8701567 -21.27886963 599.42810059 C-20.76670307 601.73719448 -20.24935529 604.0450569 -19.72998047 606.35253906 C-18.14720181 613.39386555 -16.59525177 620.44024119 -15.15234375 627.51171875 C-14.91249756 628.68565186 -14.67265137 629.85958496 -14.42553711 631.0690918 C-13.3418196 637.33062416 -13.52987054 642.87877537 -14.875 649.0625 C-17.77454893 664.15285322 -15.79886564 678.5620278 -12.2421875 693.3203125 C-10.54174376 700.42802504 -9.41146748 707.61058275 -8.30761719 714.83129883 C-7.55883083 719.6008687 -6.64203147 724.19206338 -5.33837891 728.84301758 C-3.75932389 735.09391086 -3.45005217 740.95192204 -3.46875 747.375 C-3.45791382 748.48375488 -3.44707764 749.59250977 -3.43591309 750.73486328 C-3.39057619 755.4189063 -3.37864213 760.10288684 -3.36376953 764.78710938 C-3.34794828 768.23326534 -3.31492895 771.67897941 -3.28125 775.125 C-3.28427124 776.16285645 -3.28729248 777.20071289 -3.29040527 778.27001953 C-3.22559605 784.68897284 -2.24525601 790.27248183 -0.55529785 796.45706177 C0.39518542 800.35923645 0.54834802 804.05968065 0.53125 808.05859375 C0.54208618 808.83203629 0.55292236 809.60547882 0.56408691 810.40235901 C0.59777501 812.83082651 0.61381358 815.25883184 0.625 817.6875 C0.69209926 832.22324286 1.26953714 845.3718542 8.5625 858.375 C8.94470703 859.10203125 9.32691406 859.8290625 9.72070312 860.578125 C12.48307279 865.80854856 12.48307279 865.80854856 17.125 869.25 C21.05783808 869.0670773 23.03461517 867.81249812 25.8125 865.125 C28.82979856 862.28518959 31.81027506 860.22498524 35.375 858.125 C40.66807863 854.52570653 42.00102169 850.58100058 43.6015625 844.53125 C44.78721186 837.09882115 43.57298448 830.67554249 41.9375 823.4375 C41.71481445 822.42139648 41.49212891 821.40529297 41.26269531 820.35839844 C40.04058476 814.89575281 38.66230863 809.52821417 37.03515625 804.17333984 C34.4088664 795.52717408 33.54799087 787.51416592 33.3046875 778.49609375 C33.20495044 775.17658436 32.81097649 772.12010696 32.0625 768.875 C27.74100006 746.80210801 32.7285472 721.393656 37.27734375 699.61328125 C38.58442704 692.65100798 38.38608263 685.61658025 38.3125 678.5625 C38.30227255 677.11848997 38.29210039 675.67447955 38.28198242 674.23046875 C38.24842117 670.23659482 38.18863718 666.24350252 38.125 662.25 C38.11629883 661.37520996 38.10759766 660.50041992 38.09863281 659.59912109 C37.91470538 645.63649209 34.71797194 631.67578706 31.03515625 618.25 C28.74521931 609.21509485 28.70960199 599.51562729 28.125 590.25 C28.07537109 589.49589844 28.02574219 588.74179687 27.97460938 587.96484375 C27.08016036 572.47116761 30.78922978 557.28905953 33.65625 542.15625 C33.78776459 541.46031738 33.91927917 540.76438477 34.05477905 540.04736328 C34.70017368 536.63521052 35.35152226 533.22449402 36.01806641 529.81640625 C38.81857416 515.25006889 40.38663745 501.06909497 40.6875 486.25 C40.75636085 483.43738976 40.83095793 480.6249446 40.90625 477.8125 C40.94105469 476.49507813 40.97585938 475.17765625 41.01171875 473.8203125 C41.14502311 469.6189269 41.3880278 465.44261074 41.6875 461.25 C42.44716419 450.07558482 42.46814619 439.31877473 40.90258789 428.23242188 C40.27312386 423.72954303 39.94233462 419.29097355 39.75 414.75 C39.26236754 404.83893203 37.39247646 395.14738676 35.66455078 385.39208984 C35.1342226 382.30370807 34.65087056 379.2117774 34.18359375 376.11328125 C32.26564647 363.56696157 29.56519842 351.58065833 25.72583008 339.47802734 C24.2849853 334.13501659 23.96647215 328.92276646 23.95703125 323.4140625 C23.95081505 322.29192101 23.95081505 322.29192101 23.94447327 321.14710999 C23.93481592 318.7230231 23.93481487 316.29910315 23.9375 313.875 C23.93743958 313.0473111 23.93737915 312.21962219 23.93731689 311.36685181 C23.95165549 297.57829197 24.54031806 283.95643523 26.125 270.25 C26.22103516 269.41033691 26.31707031 268.57067383 26.41601562 267.70556641 C26.93873052 263.21359639 27.50572698 258.72984737 28.125 254.25 C30.5 253.625 30.5 253.625 33.125 253.25 C35.84191029 255.96691029 35.79522664 258.72131046 36.3125 262.375 C37.84296398 272.11071882 40.65012816 281.39964164 43.50390625 290.81640625 C45.6290423 297.89367175 47.26565769 304.15627956 47.25 311.625 C47.90713105 328.0089537 57.97530093 341.65467899 66.671875 354.93359375 C69.66622901 359.50775585 72.50720502 364.14648889 75.25 368.875 C76.04683561 370.24741871 76.84371086 371.61981439 77.640625 372.9921875 C78.24100586 374.02617676 78.24100586 374.02617676 78.85351562 375.08105469 C80.70097861 378.23252572 82.59134964 381.3575575 84.48095703 384.48388672 C86.52362914 387.86732913 88.55106812 391.25973391 90.57519531 394.65429688 C91.61274612 396.39204737 92.65379476 398.12771397 93.69824219 399.86132812 C103.33188595 415.90346522 110.29122914 432.17407776 115.98046875 449.96484375 C117.01104763 452.9229217 118.21463212 455.5848295 119.625 458.375 C122.615486 464.58166905 123.91893722 471.19815935 125.33789062 477.90283203 C126.74293318 484.48398467 126.74293318 484.48398467 130.125 490.25 C130.785 490.25 131.445 490.25 132.125 490.25 C132.16238281 488.98542969 132.19976562 487.72085937 132.23828125 486.41796875 C132.30393833 484.7577827 132.37038576 483.09762778 132.4375 481.4375 C132.46005859 480.60412109 132.48261719 479.77074219 132.50585938 478.91210938 C132.54130859 478.10966797 132.57675781 477.30722656 132.61328125 476.48046875 C132.65255737 475.37288208 132.65255737 475.37288208 132.69262695 474.24291992 C133.23470841 471.7443254 134.12409357 470.80086387 136.125 469.25 C138.80578809 469.33647704 140.01033192 470.16051393 142.1171875 471.8046875 C144.75863953 475.02170884 145.46394638 478.33468113 146.3125 482.3125 C146.63862273 483.74104544 146.96541989 485.16943713 147.29296875 486.59765625 C147.56753906 487.80292969 147.84210938 489.00820313 148.125 490.25 C148.455 491.24 148.785 492.23 149.125 493.25 C150.445 492.92 151.765 492.59 153.125 492.25 C154.17514778 489.33292284 154.05262666 487.78359401 153.5625 484.625 C153.418125 483.51125 153.27375 482.3975 153.125 481.25 C153.785 480.59 154.445 479.93 155.125 479.25 C157.57421875 479.33984375 157.57421875 479.33984375 160.125 480.25 C161.70703125 482.31640625 161.70703125 482.31640625 162.9375 484.8125 C163.35644531 485.63878906 163.77539062 486.46507812 164.20703125 487.31640625 C164.66142578 488.27353516 164.66142578 488.27353516 165.125 489.25 C165.785 489.25 166.445 489.25 167.125 489.25 C166.70946466 485.84261017 166.11915697 483.23782703 164.625 480.125 C162.35173727 475.16616708 162.15774087 469.64405842 162.125 464.25 C162.455 463.59 162.785 462.93 163.125 462.25 C166.91972973 462.79449764 168.39531268 464.28792388 170.8125 467.1875 C171.71548828 468.25291016 171.71548828 468.25291016 172.63671875 469.33984375 C174.125 471.25 174.125 471.25 175.125 473.25 C176.115 473.25 177.105 473.25 178.125 473.25 C177.73852735 467.47438089 176.44079586 464.87236328 172.5 460.6875 C166.77080979 454.28629126 160.93144946 446.22973697 159.7578125 437.52734375 C160.125 435.25 160.125 435.25 161.2890625 433.390625 C163.94825734 431.73852948 165.49237115 432.32431352 168.5 433 C169.43585938 433.20109375 170.37171875 433.4021875 171.3359375 433.609375 C173.15917378 434.02815756 174.98088244 434.45366254 176.80078125 434.88671875 C179.77068426 435.35092208 181.46191108 434.54350033 184.125 433.25 C183.87532348 431.30996834 183.87532348 431.30996834 183.125 429.25 C180.53475095 427.62915099 178.0569935 426.27548401 175.3203125 424.94921875 C174.52656219 424.5497554 173.73281189 424.15029205 172.91500854 423.73872375 C170.36636012 422.45844089 167.80897025 421.19700821 165.25 419.9375 C134.43359162 404.64472415 134.43359162 404.64472415 130.125 394.375 C129.73038574 393.49658447 129.33577148 392.61816895 128.92919922 391.71313477 C124.04147273 380.41253541 120.32740009 368.61629333 116.5703125 356.90234375 C116.35787399 356.24160355 116.14543549 355.58086334 115.92655945 354.90010071 C114.98126373 351.9525936 114.04957959 349.0023731 113.14770508 346.04125977 C110.73632677 338.34138363 107.36864066 331.41529793 103.5625 324.3125 C102.98564453 323.21615234 102.40878906 322.11980469 101.81445312 320.99023438 C98.87257258 315.33984685 98.87257258 315.33984685 95.57250977 309.89868164 C93.72450701 306.5171701 92.85275092 303.05536569 91.96875 299.3359375 C91.78107056 298.57311966 91.59339111 297.81030182 91.40002441 297.02436829 C90.79794219 294.56029393 90.21000094 292.09318181 89.625 289.625 C89.42390625 288.78409821 89.2228125 287.94319641 89.015625 287.07681274 C84.95459404 270.05558558 82.12590006 254.04221674 81.67114258 236.52490234 C81.25190301 225.14086562 78.90026623 214.26818943 76.125 203.25 C75.9506543 202.55245605 75.77630859 201.85491211 75.59667969 201.13623047 C74.63854644 197.42175668 73.48359107 193.83628083 72.125 190.25 C71.75375 189.24195313 71.3825 188.23390625 71 187.1953125 C66.24882489 176.08095643 57.69579368 168.8538851 46.69921875 164.30395508 C40.59778609 161.96652152 34.37440051 160.00172547 28.15917969 157.99316406 C0.58841991 149.02294252 0.58841991 149.02294252 -6.98144531 136.23828125 C-10.24564446 128.97499221 -9.58282381 120.31728603 -7.08837891 112.91601562 C-3.97986175 105.42212534 0.26242545 99.01105821 5.6875 93 C10.12239679 87.95501158 12.38115071 82.51675408 14.75 76.3125 C15.28282593 74.92466309 15.28282593 74.92466309 15.82641602 73.50878906 C18.06898505 67.94426344 18.06898505 67.94426344 17.125 62.25 C16.14015625 61.41984375 15.1553125 60.5896875 14.140625 59.734375 C9.68879317 55.49529499 10.07573436 50.33563471 9.875 44.5 C9.21524752 31.27196273 8.26419981 18.64322052 -0.875 8.25 C-10.23171846 0.17361263 -24.43063905 -3.06830177 -36.47265625 -3.9375 C-47.8584151 -3.04885541 -63.29175467 1.60603447 -71.51611328 9.90625 Z " fill="#3C3C3C" transform="translate(294.875,17.75)"/>
<path d="M0 0 C1.65 0 3.3 0 5 0 C7.39693508 5.70977217 7.43624465 11.27977515 7.625 17.375 C7.66367188 18.39722656 7.70234375 19.41945313 7.7421875 20.47265625 C7.83597964 22.98159597 7.92167879 25.49053764 8 28 C8.66 28 9.32 28 10 28 C10.84327749 36.35748222 11.12190678 44.60197746 11 53 C10.67 53 10.34 53 10 53 C9.29939589 48.00621741 8.60599883 43.01150052 7.91870117 38.01586914 C7.6849077 36.32355056 7.44929046 34.63148273 7.21166992 32.93969727 C5.71833786 22.29694381 4.53179604 11.73783989 4 1 C3.01 1 2.02 1 1 1 C0.87625 1.928125 0.7525 2.85625 0.625 3.8125 C0.18274029 6.91064154 -0.34778423 9.98467798 -0.9140625 13.0625 C-1.18017334 14.51910034 -1.18017334 14.51910034 -1.45166016 16.00512695 C-1.80256931 17.92169091 -2.15377774 19.83820011 -2.50537109 21.75463867 C-5.03495246 35.69480451 -6.7023052 49.49753665 -7.73925781 63.62109375 C-11.90974934 117.66566563 -11.90974934 117.66566563 -19 143 C-19.33 143 -19.66 143 -20 143 C-19.58562522 138.02750268 -18.91015822 133.43726725 -17.5859375 128.625 C-15.74698769 121.40619672 -14.80912576 114.13728783 -13.9375 106.75 C-13.76519368 105.33137329 -13.59282955 103.9127536 -13.42041016 102.49414062 C-11.84700571 89.36975417 -10.72039046 76.22011887 -9.79101562 63.03515625 C-8.71350954 47.83144655 -6.73991676 32.99247371 -4 18 C-3.82484863 17.01169189 -3.64969727 16.02338379 -3.46923828 15.00512695 C-3.29634277 14.03406006 -3.12344727 13.06299316 -2.9453125 12.0625 C-2.71352295 10.75539063 -2.71352295 10.75539063 -2.47705078 9.421875 C-1.84395178 6.20777978 -0.97274245 3.12667216 0 0 Z " fill="#BDBDBD" transform="translate(244,487)"/>
<path d="M0 0 C0.33 0 0.66 0 1 0 C0.39373836 8.48087648 -0.8159867 16.83821631 -2.15673828 25.22705078 C-2.50266756 27.39169216 -2.84356095 29.55708151 -3.18359375 31.72265625 C-4.8762152 42.44356773 -4.8762152 42.44356773 -5.5546875 45.4934082 C-6.13213252 48.74375248 -6.20213263 51.9070373 -6.28125 55.20703125 C-6.29965942 55.89125656 -6.31806885 56.57548187 -6.33703613 57.28044128 C-6.39544016 59.45771185 -6.44835727 61.63505926 -6.5 63.8125 C-6.56835042 66.67331644 -6.64210551 69.53392642 -6.71875 72.39453125 C-6.74904297 73.66143799 -6.77933594 74.92834473 -6.81054688 76.23364258 C-6.94574188 78.92134012 -7.1587451 81.47632978 -7.50927734 84.13354492 C-7.9112696 87.30088393 -8.1286445 90.28439907 -8.1328125 93.46875 C-8.13474609 94.44392578 -8.13667969 95.41910156 -8.13867188 96.42382812 C-8.13416016 97.43896484 -8.12964844 98.45410156 -8.125 99.5 C-8.12306641 100.56154297 -8.12113281 101.62308594 -8.11914062 102.71679688 C-8.07983526 109.91841377 -7.75826878 117.03701586 -7.22265625 124.21875 C-6.83455597 130.80964604 -6.92101755 137.40057755 -7 144 C-7.66 144 -8.32 144 -9 144 C-9.93122344 130.28561849 -10.20220362 116.61906861 -10.1875 102.875 C-10.18689575 101.82707275 -10.1862915 100.77914551 -10.18566895 99.69946289 C-10.14628869 74.41733686 -9.19953511 49.63557942 -4.49804688 24.7265625 C-3.5315564 19.4355009 -2.75423093 14.11355672 -1.95141602 8.7956543 C-1.48191822 5.75459671 -0.97528194 2.92584582 0 0 Z " fill="#B7B7B7" transform="translate(172,417)"/>
<path d="M0 0 C1.0012793 0.00088623 2.00255859 0.00177246 3.03417969 0.00268555 C11.11874712 0.13108443 21.24002779 0.40508749 27.609375 6.01171875 C27.98578125 6.46160156 28.3621875 6.91148438 28.75 7.375 C28.07453125 7.17003906 27.3990625 6.96507812 26.703125 6.75390625 C25.81109375 6.48449219 24.9190625 6.21507812 24 5.9375 C23.11828125 5.67066406 22.2365625 5.40382813 21.328125 5.12890625 C20.47734375 4.88011719 19.6265625 4.63132812 18.75 4.375 C17.84386963 4.10828491 17.84386963 4.10828491 16.91943359 3.83618164 C14.38396329 3.29718733 12.05332068 3.24536277 9.4609375 3.2421875 C8.43613281 3.24089844 7.41132813 3.23960938 6.35546875 3.23828125 C5.28941406 3.24214844 4.22335937 3.24601563 3.125 3.25 C2.08214844 3.24613281 1.03929687 3.24226562 -0.03515625 3.23828125 C-13.11041318 3.17732076 -13.11041318 3.17732076 -25.25 7.375 C-27.4140625 6.9609375 -27.4140625 6.9609375 -29.25 6.375 C-19.80346384 1.12692436 -10.71960933 -0.01713839 0 0 Z " fill="#939393" transform="translate(260.25,7.625)"/>
<path d="M0 0 C0.33 0 0.66 0 1 0 C1.18208643 5.28050633 0.8727372 9.00603412 -1 14 C-3.52476058 22.27560414 -4.49816568 31.28580287 -1.46484375 39.5859375 C1.94826062 45.21073351 7.18364487 49.5868746 12 54 C11.67 54.66 11.34 55.32 11 56 C-4.22188559 42.40687628 -4.22188559 42.40687628 -5.8359375 32.9140625 C-5.89007813 31.95242188 -5.94421875 30.99078125 -6 30 C-6.07476562 28.80117188 -6.14953125 27.60234375 -6.2265625 26.3671875 C-6.18091001 20.86149707 -4.52912477 15.74861747 -3 10.5 C-2.71382812 9.48679687 -2.42765625 8.47359375 -2.1328125 7.4296875 C-1.43110741 4.95032951 -0.720014 2.47409067 0 0 Z " fill="#949494" transform="translate(156,830)"/>
<path d="M0 0 C1.66251388 3.07120195 2.68800191 6.07574655 3.62109375 9.4375 C3.91693359 10.49839844 4.21277344 11.55929687 4.51757812 12.65234375 C4.82115234 13.75707031 5.12472656 14.86179687 5.4375 16 C5.73720703 17.07378906 6.03691406 18.14757812 6.34570312 19.25390625 C7.24571871 22.49864792 8.12480007 25.74848627 9 29 C9.29189209 30.04961914 9.58378418 31.09923828 9.88452148 32.18066406 C11.48728581 38.16368623 12.42231719 43.5604596 12.1875 49.75 C12.17396484 50.45898438 12.16042969 51.16796875 12.14648438 51.8984375 C12.11200723 53.59930981 12.0582564 55.29977605 12 57 C11.67 57 11.34 57 11 57 C10.85304688 55.56333984 10.85304688 55.56333984 10.703125 54.09765625 C9.87706479 46.56081292 8.74549623 39.19523662 7 31.8125 C6.8340332 31.10681885 6.66806641 30.4011377 6.49707031 29.67407227 C5.5903366 25.97187318 4.44506081 22.52016813 3 19 C1.11229443 12.64414731 -0.45347602 6.65098164 0 0 Z " fill="#A4A4A4" transform="translate(331,281)"/>
<path d="M0 0 C0.33 0 0.66 0 1 0 C1.77032477 13.46641817 -1.69287031 26.37480024 -5.1328125 39.28125 C-6.04796871 43.20570367 -6.56610365 46.99752756 -7 51 C-7.66 51 -8.32 51 -9 51 C-9.26007852 44.71476908 -8.34170848 39.43708771 -6.75 33.375 C-3.97621398 22.33658565 -1.9144272 11.21539329 0 0 Z " fill="#959595" transform="translate(127,238)"/>
<path d="M0 0 C0.33 0 0.66 0 1 0 C1.13051758 0.65371582 1.26103516 1.30743164 1.39550781 1.98095703 C4.7534809 18.83265517 4.7534809 18.83265517 9.30078125 35.390625 C10 38 10 38 10 42 C9.34 42 8.68 42 8 42 C7.79318604 41.22809326 7.58637207 40.45618652 7.37329102 39.66088867 C6.43729696 36.16950732 5.49991515 32.67850005 4.5625 29.1875 C4.23701172 27.97255859 3.91152344 26.75761719 3.57617188 25.50585938 C3.26357422 24.34248047 2.95097656 23.17910156 2.62890625 21.98046875 C2.34088135 20.90692139 2.05285645 19.83337402 1.75610352 18.72729492 C1.22263388 16.8030491 0.63145165 14.89435495 0 13 C-0.06937062 10.77181559 -0.08457084 8.54165476 -0.0625 6.3125 C-0.05347656 5.13300781 -0.04445313 3.95351563 -0.03515625 2.73828125 C-0.02355469 1.83464844 -0.01195312 0.93101562 0 0 Z " fill="#939393" transform="translate(385,277)"/>
<path d="M0 0 C2.13832679 3.20749019 3.27242366 6.20437039 4.625 9.8125 C6.98136808 15.92298073 9.83314833 21.49298336 13.15844727 27.12548828 C18.78553292 36.66808199 18.78553292 36.66808199 20 41 C19.67 41.99 19.34 42.98 19 44 C18.73372803 43.45698242 18.46745605 42.91396484 18.19311523 42.35449219 C11.9735624 29.59883093 11.9735624 29.59883093 5 17.25 C1.54038558 11.48668939 0 6.8014128 0 0 Z " fill="#B3B3B3" transform="translate(386,313)"/>
<path d="M0 0 C0.33 0 0.66 0 1 0 C1 2.64 1 5.28 1 8 C0.34 8 -0.32 8 -1 8 C-0.94199219 8.57363281 -0.88398438 9.14726562 -0.82421875 9.73828125 C-0.30031354 19.60266786 -3.28038794 28.62705129 -6 38 C-6.66 38 -7.32 38 -8 38 C-7.26214258 30.59375614 -5.64177233 23.43995185 -4 16.1875 C-3.72671875 14.96095703 -3.4534375 13.73441406 -3.171875 12.47070312 C-1.14553571 3.43660714 -1.14553571 3.43660714 0 0 Z " fill="#939393" transform="translate(165,311)"/>
<path d="M0 0 C0.33 0 0.66 0 1 0 C1.07473444 5.92241731 1.12887606 11.84455382 1.16479492 17.76733398 C1.17978516 19.77779936 1.20018428 21.78823258 1.22631836 23.79858398 C1.52259641 47.19293141 1.52259641 47.19293141 -2 54 C-2.99 54.66 -3.98 55.32 -5 56 C-4.71342606 54.45737855 -4.42046123 52.91594394 -4.125 51.375 C-3.96257812 50.51648438 -3.80015625 49.65796875 -3.6328125 48.7734375 C-3 46 -3 46 -1.98632812 43.41015625 C-0.73940845 39.09902406 -0.6470498 35.12920331 -0.5859375 30.6640625 C-0.56657135 29.78471039 -0.5472052 28.90535828 -0.5272522 27.99935913 C-0.46777185 25.20800282 -0.4211979 22.41660457 -0.375 19.625 C-0.33679115 17.72524306 -0.29773774 15.8255029 -0.2578125 13.92578125 C-0.16209643 9.2839915 -0.0779496 4.64212071 0 0 Z " fill="#D5D5D5" transform="translate(202,816)"/>
<path d="M0 0 C0.8791137 2.41484936 1.1801894 3.56497129 0.1796875 5.98046875 C-0.25085938 6.70878906 -0.68140625 7.43710937 -1.125 8.1875 C-4.65297108 14.79139015 -6.475441 21.80734455 -8.44677734 28.98974609 C-9.27512724 31.9997342 -10.138721 34.99928823 -11 38 C-11.66 38 -12.32 38 -13 38 C-12.36901558 31.93092612 -10.7028663 26.45548343 -8.75 20.6875 C-8.43861084 19.75848877 -8.12722168 18.82947754 -7.80639648 17.87231445 C-5.67817055 11.65374208 -3.32815963 5.69007937 0 0 Z " fill="#929292" transform="translate(96,433)"/>
<path d="M0 0 C0.33 0 0.66 0 1 0 C1.33 10.89 1.66 21.78 2 33 C2.66 33 3.32 33 4 33 C4 39.6 4 46.2 4 53 C3.67 53 3.34 53 3 53 C0.1911966 35.22336218 -0.37478992 17.95916414 0 0 Z " fill="#BABABA" transform="translate(153,675)"/>
<path d="M0 0 C0.33 0 0.66 0 1 0 C1.13433876 8.46334173 0.4832845 16.33933653 -1.45703125 24.58203125 C-2.45479158 29.02529489 -3.21208118 33.51556843 -4 38 C-4.66 38 -5.32 38 -6 38 C-5.42475486 29.47174524 -4.05170598 21.20004087 -2.4375 12.8125 C-2.20353516 11.57435547 -1.96957031 10.33621094 -1.72851562 9.06054688 C-1.15695784 6.03945575 -0.58070458 3.01934385 0 0 Z " fill="#949494" transform="translate(331,541)"/>
<path d="M0 0 C2.58425961 2.58425961 2.63491411 4.34650375 3.2890625 7.92578125 C3.61777344 9.70952148 3.61777344 9.70952148 3.953125 11.52929688 C4.17484375 12.77775391 4.3965625 14.02621094 4.625 15.3125 C4.85445313 16.54935547 5.08390625 17.78621094 5.3203125 19.06054688 C7.14802539 29.12928664 7.14802539 29.12928664 7 34 C6.34 34 5.68 34 5 34 C2.36760638 22.62561083 0.34948354 11.69022432 0 0 Z " fill="#979797" transform="translate(376,211)"/>
<path d="M0 0 C0 0.66 0 1.32 0 2 C-0.86951294 2.25692627 -0.86951294 2.25692627 -1.7565918 2.51904297 C-4.40095988 3.30191336 -7.04423247 4.08842212 -9.6875 4.875 C-10.59951172 5.14441406 -11.51152344 5.41382813 -12.45117188 5.69140625 C-13.33740234 5.95566406 -14.22363281 6.21992188 -15.13671875 6.4921875 C-15.94842529 6.73308105 -16.76013184 6.97397461 -17.59643555 7.22216797 C-19.30284054 7.77438801 -20.9869172 8.39782145 -22.65039062 9.06835938 C-25.10573049 10.04192306 -27.19005423 10.39015411 -29.8125 10.625 C-30.60269531 10.69976562 -31.39289063 10.77453125 -32.20703125 10.8515625 C-32.79871094 10.90054688 -33.39039063 10.94953125 -34 11 C-31.39369069 8.39369069 -29.08792007 7.92496679 -25.56640625 6.8359375 C-24.93266586 6.63900299 -24.29892548 6.44206848 -23.64598083 6.23916626 C-22.30617884 5.82439081 -20.96541478 5.41271218 -19.6237793 5.00390625 C-17.57150823 4.37774845 -15.52294771 3.74045308 -13.47460938 3.1015625 C-3.41791783 0 -3.41791783 0 0 0 Z " fill="#A9A9A9" transform="translate(200,163)"/>
<path d="M0 0 C0.33 0 0.66 0 1 0 C1 4.29 1 8.58 1 13 C0.34 12.34 -0.32 11.68 -1 11 C-3.97 21.89 -3.97 21.89 -7 33 C-7.33 33 -7.66 33 -8 33 C-7.38157756 26.20430172 -6.16795353 19.7527615 -4.5625 13.125 C-4.34529297 12.18914062 -4.12808594 11.25328125 -3.90429688 10.2890625 C-3.68966797 9.391875 -3.47503906 8.4946875 -3.25390625 7.5703125 C-3.06127197 6.76352051 -2.8686377 5.95672852 -2.67016602 5.12548828 C-2 3 -2 3 0 0 Z " fill="#A8A8A8" transform="translate(176,299)"/>
<path d="M0 0 C5.77398894 8.66098341 6.91074313 20.51095523 5.5 30.5625 C5.335 31.366875 5.17 32.17125 5 33 C4.67 33 4.34 33 4 33 C3.96261719 32.04480469 3.92523438 31.08960938 3.88671875 30.10546875 C3.51674619 22.82934182 2.78894068 16.38890203 0.6328125 9.38671875 C-0.22917393 6.13564646 -0.22272476 3.34087133 0 0 Z " fill="#8E8E8E" transform="translate(341,829)"/>
<path d="M0 0 C6.93406981 8.45155621 11.9197991 21.40015275 14 32 C13.71086293 33.3436103 13.38430287 34.68045455 13 36 C12.71278076 35.21351074 12.42556152 34.42702148 12.12963867 33.61669922 C11.05334955 30.67474109 9.97389168 27.73397022 8.89233398 24.79394531 C8.19858695 22.90518478 7.50844346 21.01510192 6.81835938 19.125 C6.37685547 17.92617187 5.93535156 16.72734375 5.48046875 15.4921875 C5.07723389 14.39245605 4.67399902 13.29272461 4.25854492 12.15966797 C3.03604824 8.94376341 3.03604824 8.94376341 1.3449707 5.78173828 C0 3 0 3 0 0 Z " fill="#B6B6B6" transform="translate(202,99)"/>
<path d="M0 0 C2.3125 1.625 2.3125 1.625 4 4 C4.90991483 9.90144759 2.38531007 13.20944515 -0.875 17.8125 C-1.56529297 18.8324707 -1.56529297 18.8324707 -2.26953125 19.87304688 C-5.68987462 24.84493731 -5.68987462 24.84493731 -8 26 C-6.1361161 20.63517014 -2.90041654 16.4937418 0.41796875 11.9375 C2.27855789 9.13016212 2.27855789 9.13016212 1.73828125 6.125 C1.37283203 5.073125 1.37283203 5.073125 1 4 C-3.455 3.01 -3.455 3.01 -8 2 C-4.75173326 -0.16551116 -3.76905843 -0.55156953 0 0 Z " fill="#B8B8B8" transform="translate(39,445)"/>
<path d="M0 0 C1.08360173 3.2508052 0.91331507 4.06917502 0.0625 7.25 C-1.28783632 12.99591385 -2.08651479 17.1325527 1 22.4375 C1.66 23.283125 2.32 24.12875 3 25 C0.45436943 24.03441599 -0.94635204 23.06131195 -2.75 21 C-4.86098558 15.9336346 -5.02353598 10.75158373 -3.09765625 5.57421875 C-2.14836603 3.67226006 -1.08368673 1.82872136 0 0 Z " fill="#A9A9A9" transform="translate(295,130)"/>
<path d="M0 0 C0 8.68864025 -10.62557306 18.53925272 -16 25 C-16.33 24.34 -16.66 23.68 -17 23 C-16.05016642 21.49460339 -15.08988109 19.99579653 -14.125 18.5 C-13.59132813 17.6646875 -13.05765625 16.829375 -12.5078125 15.96875 C-12.01023437 15.3190625 -11.51265625 14.669375 -11 14 C-10.34 14 -9.68 14 -9 14 C-8.91878906 13.44828125 -8.83757812 12.8965625 -8.75390625 12.328125 C-7.74737871 9.21988451 -6.01640272 7.25788265 -3.9375 4.75 C-3.20402344 3.85796875 -2.47054687 2.9659375 -1.71484375 2.046875 C-1.14894531 1.37140625 -0.58304688 0.6959375 0 0 Z " fill="#A8A8A8" transform="translate(131,397)"/>
<path d="M0 0 C-0.309375 0.99 -0.61875 1.98 -0.9375 3 C-2.68204345 9.82970202 -2.67671293 16.98977519 -3 24 C-5 22 -5 22 -5.265625 19.64453125 C-5.23466804 14.03358311 -4.88360072 9.29762702 -3 4 C-3.66 3.67 -4.32 3.34 -5 3 C-2.25 0 -2.25 0 0 0 Z " fill="#8B8B8B" transform="translate(37,485)"/>
<path d="M0 0 C0.33 0 0.66 0 1 0 C0.5319481 19.28373822 0.5319481 19.28373822 -5.6328125 25.69921875 C-6.08398438 26.12847656 -6.53515625 26.55773437 -7 27 C-7.66 26.67 -8.32 26.34 -9 26 C-8.22269531 25.22398437 -7.44539063 24.44796875 -6.64453125 23.6484375 C-3.15634898 19.46261878 -2.55363582 14.88180699 -1.6875 9.625 C-1.43516602 8.23474609 -1.43516602 8.23474609 -1.17773438 6.81640625 C-0.76825071 4.54669679 -0.37625668 2.27541147 0 0 Z " fill="#B6B6B6" transform="translate(87,476)"/>
<path d="M0 0 C1.19309111 3.44440217 0.80482315 5.37627347 -0.43359375 8.765625 C-0.9121582 10.09980469 -0.9121582 10.09980469 -1.40039062 11.4609375 C-1.91375977 12.84152344 -1.91375977 12.84152344 -2.4375 14.25 C-2.77587891 15.18585938 -3.11425781 16.12171875 -3.46289062 17.0859375 C-4.29907822 19.39428634 -5.14504056 21.69855191 -6 24 C-6.33 24 -6.66 24 -7 24 C-6.48041715 19.62065881 -5.94324258 15.31196609 -5 11 C-4.34 11 -3.68 11 -3 11 C-2.87625 10.29875 -2.7525 9.5975 -2.625 8.875 C-1.96161655 5.82343613 -1.02788045 2.94659062 0 0 Z " fill="#ACACAC" transform="translate(95,452)"/>
<path d="M0 0 C0.33 0.66 0.66 1.32 1 2 C-0.29296875 4.50390625 -0.29296875 4.50390625 -2.1875 7.5625 C-5.21289501 12.57860492 -7.7953294 17.57733194 -10 23 C-11.41687119 18.74938644 -10.19320039 16.28148375 -9 12 C-8.34 12 -7.68 12 -7 12 C-6.773125 11.319375 -6.54625 10.63875 -6.3125 9.9375 C-4.64427643 6.20385676 -2.44270392 3.27836579 0 0 Z " fill="#A8A8A8" transform="translate(107,337)"/>
<path d="M0 0 C3.25543229 0.34879632 4.01873107 1.02133261 6.25 3.5625 C6.8275 4.366875 7.405 5.17125 8 6 C7.401875 5.690625 6.80375 5.38125 6.1875 5.0625 C3.91043228 3.89790296 3.91043228 3.89790296 1 3 C1 7.62 1 12.24 1 17 C-1.63799428 14.36200572 -1.44709714 12.73742439 -1.75 9.0625 C-1.84796875 8.00160156 -1.9459375 6.94070313 -2.046875 5.84765625 C-2 3 -2 3 0 0 Z " fill="#969696" transform="translate(458,479)"/>
<path d="M0 0 C0.33 0 0.66 0 1 0 C1 2.64 1 5.28 1 8 C0.34 8 -0.32 8 -1 8 C-0.97679687 8.75925781 -0.95359375 9.51851563 -0.9296875 10.30078125 C-0.91164062 11.29464844 -0.89359375 12.28851563 -0.875 13.3125 C-0.85179687 14.29863281 -0.82859375 15.28476562 -0.8046875 16.30078125 C-1 19 -1 19 -3 22 C-3.41136629 14.12309743 -2.436168 7.49701701 0 0 Z " fill="#727272" transform="translate(165,311)"/>
<path d="M0 0 C0.66 0 1.32 0 2 0 C-0.04731506 11.21667293 -0.04731506 11.21667293 -2 15 C-2.99 15.495 -2.99 15.495 -4 16 C-2.98408579 10.53135543 -1.92908943 5.23609987 0 0 Z " fill="#9D9D9D" transform="translate(201,856)"/>
<path d="M0 0 C0 4.0264867 -1.5923437 5.65161219 -3.875 8.9375 C-7.24024674 13.79294935 -7.24024674 13.79294935 -10 19 C-10.3194851 14.87573781 -9.63465208 12.85267916 -7.25 9.5 C-6.70601563 8.72785156 -6.16203125 7.95570313 -5.6015625 7.16015625 C-3.79363085 4.72165331 -1.95093004 2.32610889 0 0 Z " fill="#ACACAC" transform="translate(107,429)"/>
<path d="M0 0 C0.33 0 0.66 0 1 0 C1.08159574 4.16138263 0.98248524 7.9472484 0 12 C-0.66 12 -1.32 12 -2 12 C-2 13.98 -2 15.96 -2 18 C-2.33 18 -2.66 18 -3 18 C-3.36517527 11.42684522 -2.13619737 6.20514474 0 0 Z " fill="#A0A0A0" transform="translate(215,635)"/>
<path d="M0 0 C2.65171248 2.37094293 4.1490052 4.83568087 5.75 8 C6.19859375 8.86625 6.6471875 9.7325 7.109375 10.625 C8 13 8 13 7 16 C5.82845707 13.71070947 4.66261926 11.41881638 3.5 9.125 C3.16613281 8.47402344 2.83226562 7.82304688 2.48828125 7.15234375 C0 2.2265625 0 2.2265625 0 0 Z " fill="#ABABAB" transform="translate(213,110)"/>
<path d="M0 0 C5.63936782 0.70492098 11.87770921 1.87770921 16 6 C10.03435204 5.49228528 5.36190101 3.61407872 0 1 C0 0.67 0 0.34 0 0 Z " fill="#A8A8A8" transform="translate(308,170)"/>
<path d="M0 0 C2.48212484 4.60966042 4 8.72927515 4 14 C3.34 14 2.68 14 2 14 C0.02905192 9.07262981 -0.1799928 5.21979128 0 0 Z " fill="#A1A1A1" transform="translate(391,305)"/>
<path d="M0 0 C0.66 0 1.32 0 2 0 C2.33 3.63 2.66 7.26 3 11 C2.34 11 1.68 11 1 11 C-0.28317892 7.15046324 -0.06643637 4.05261865 0 0 Z " fill="#878787" transform="translate(380,234)"/>
<path d="M0 0 C0.66 0.66 1.32 1.32 2 2 C1.57469657 5.82773086 0.26430036 9.3756723 -1 13 C-1.33 13 -1.66 13 -2 13 C-2 10.36 -2 7.72 -2 5 C-1.34 5 -0.68 5 0 5 C0 3.35 0 1.7 0 0 Z " fill="#939393" transform="translate(163,831)"/>
<path d="M0 0 C2.00293347 3.00440021 2.49271626 4.70993945 3.125 8.1875 C3.37636719 9.53908203 3.37636719 9.53908203 3.6328125 10.91796875 C3.75398438 11.60503906 3.87515625 12.29210937 4 13 C1 11 1 11 0.3125 9.3125 C-0.10859258 6.19641489 -0.06037884 3.13969957 0 0 Z " fill="#909090" transform="translate(440,498)"/>
<path d="M0 0 C3.26566506 4.89849759 3.09311493 8.31998909 3 14 C2.67 14 2.34 14 2 14 C0.4087311 9.126739 -0.21192221 5.19209404 0 0 Z " fill="#ACACAC" transform="translate(168,571)"/>
<path d="M0 0 C-1.485 5.445 -1.485 5.445 -3 11 C-3.33 11 -3.66 11 -4 11 C-3.67 8.69 -3.34 6.38 -3 4 C-3.66 3.67 -4.32 3.34 -5 3 C-2.25 0 -2.25 0 0 0 Z " fill="#AAAAAA" transform="translate(37,485)"/>
<path d="M0 0 C0.33 0 0.66 0 1 0 C1 2.64 1 5.28 1 8 C0.34 8 -0.32 8 -1 8 C-1 9.65 -1 11.3 -1 13 C-1.33 13 -1.66 13 -2 13 C-2.19294408 8.17639811 -1.75747614 4.50353262 0 0 Z " fill="#A4A4A4" transform="translate(82,471)"/>
<path d="M0 0 C1.8125 1.5 1.8125 1.5 3 3 C2.67 3.66 2.34 4.32 2 5 C1.01 4.34 0.02 3.68 -1 3 C-3.32387947 2.60612212 -5.65793749 2.26513915 -8 2 C-4.76746204 -0.15502531 -3.74849077 -0.46856135 0 0 Z " fill="#9A9A9A" transform="translate(39,445)"/>
<path d="M0 0 C1.4370809 -0.05422947 2.87475462 -0.09289723 4.3125 -0.125 C5.11300781 -0.14820313 5.91351563 -0.17140625 6.73828125 -0.1953125 C9 0 9 0 12 2 C12 2.66 12 3.32 12 4 C6.06 2.515 6.06 2.515 0 1 C0 0.67 0 0.34 0 0 Z " fill="#ADADAD" transform="translate(271,16)"/>
<path d="M0 0 C1.9451 2.91765 2.45276317 4.62537285 3 8 C2.01 8.66 1.02 9.32 0 10 C0 6.7 0 3.4 0 0 Z " fill="#919191" transform="translate(468,501)"/>
<path d="M0 0 C0.33 0 0.66 0 1 0 C1 2.64 1 5.28 1 8 C0.34 8 -0.32 8 -1 8 C-1.33 8.99 -1.66 9.98 -2 11 C-1.125 3.375 -1.125 3.375 0 0 Z " fill="#9E9E9E" transform="translate(165,311)"/>
<path d="M0 0 C0.33 0 0.66 0 1 0 C1 2.64 1 5.28 1 8 C0.34 8 -0.32 8 -1 8 C-1.33 8.99 -1.66 9.98 -2 11 C-1.125 3.375 -1.125 3.375 0 0 Z " fill="#9E9E9E" transform="translate(130,227)"/>
</svg>
